<svg width="12" height="16" viewBox="0 0 12 16" fill="none" xmlns="http://www.w3.org/2000/svg">
<path d="M10.7167 7.33333C10.525 7.08333 10.2917 6.86667 10.075 6.65C9.51671 6.15 8.88338 5.79167 8.35004 5.26667C7.10837 4.05 6.83337 2.04167 7.62504 0.5C6.83337 0.691667 6.14171 1.125 5.55004 1.6C3.39171 3.33333 2.54171 6.39167 3.55837 9.01667C3.59171 9.1 3.62504 9.18333 3.62504 9.29167C3.62504 9.475 3.50004 9.64167 3.33337 9.70833C3.14171 9.79167 2.94171 9.74167 2.78338 9.60833C2.73608 9.56871 2.69652 9.52068 2.66671 9.46667C1.72504 8.275 1.57504 6.56667 2.20837 5.2C0.816708 6.33333 0.0583748 8.25 0.166708 10.0583C0.216708 10.475 0.266708 10.8917 0.408375 11.3083C0.525041 11.8083 0.750041 12.3083 1.00004 12.75C1.90004 14.1917 3.45837 15.225 5.13337 15.4333C6.91671 15.6583 8.82504 15.3333 10.1917 14.1C11.7167 12.7167 12.25 10.5 11.4667 8.6L11.3584 8.38333C11.1834 8 10.7167 7.33333 10.7167 7.33333ZM8.08337 12.5833C7.85004 12.7833 7.46671 13 7.16671 13.0833C6.23337 13.4167 5.30004 12.95 4.75004 12.4C5.74171 12.1667 6.33337 11.4333 6.50837 10.6917C6.65004 10.025 6.38337 9.475 6.27504 8.83333C6.17504 8.21667 6.19171 7.69167 6.41671 7.11667C6.57504 7.43333 6.74171 7.75 6.94171 8C7.58337 8.83333 8.59171 9.2 8.80838 10.3333C8.84171 10.45 8.85838 10.5667 8.85838 10.6917C8.88338 11.375 8.58337 12.125 8.08337 12.5833Z" fill="#E63D3D"/>
</svg>
