<svg width="13" height="10" viewBox="0 0 13 10" fill="none" xmlns="http://www.w3.org/2000/svg">
<path d="M9.82795 0C10.7 0 11.4384 0.301935 12.0433 0.905806C12.6482 1.50968 12.9504 2.23842 12.95 3.09203C12.95 3.34257 12.9197 3.59231 12.8593 3.84124C12.7988 4.09018 12.7022 4.33088 12.5693 4.56336H9.12062L7.92728 2.88906H7.30395L6.18595 5.97627L5.12062 4.56336H1.32995C1.19751 4.33088 1.10084 4.09199 1.03995 3.84666C0.979951 3.60174 0.949951 3.35542 0.949951 3.10768C0.949951 2.24323 1.24951 1.50927 1.84862 0.905806C2.44773 0.302337 3.18328 0.00040151 4.05528 0C4.51128 0 4.94995 0.0839155 5.37128 0.251747C5.79217 0.419176 6.16884 0.661889 6.50128 0.979884L6.94995 1.4087L7.37328 1.00337C7.71151 0.677347 8.09328 0.428611 8.51862 0.257167C8.94395 0.0857222 9.3804 0 9.82795 0ZM6.93328 10L2.14728 5.64623C2.06373 5.57075 1.98328 5.49305 1.90595 5.41315C1.82906 5.33406 1.75862 5.25155 1.69462 5.16562H4.76328L5.98995 6.83209H6.60995L7.71462 3.72982L8.77595 5.16562H12.202C12.138 5.24914 12.0675 5.33064 11.9906 5.41014C11.9137 5.48964 11.8346 5.56713 11.7533 5.64262L6.93328 10Z" fill="#F97316"/>
</svg>
