<svg width="10" height="12" viewBox="0 0 10 12" fill="none" xmlns="http://www.w3.org/2000/svg">
<path d="M5 12C4.88961 12 4.77922 11.9825 4.66883 11.9474C4.55844 11.9123 4.45697 11.8553 4.36443 11.7765C3.86321 11.3295 3.35494 10.8316 2.83963 10.283C2.32479 9.73479 1.85739 9.16678 1.43743 8.57895C1.01748 7.99111 0.672684 7.39121 0.403049 6.77922C0.133413 6.16724 -0.000934603 5.56983 4.89321e-06 4.98701C4.89321e-06 3.54113 0.485255 2.3486 1.45575 1.40943C2.42672 0.469811 3.60814 0 5 0C6.39187 0 7.57328 0.469811 8.54425 1.40943C9.51475 2.3486 10 3.54113 10 4.98701C10 5.56983 9.86565 6.16519 9.59696 6.77307C9.32826 7.3805 8.98581 7.98018 8.56962 8.57211C8.15389 9.1645 7.6886 9.73274 7.17376 10.2768C6.65892 10.8209 6.15041 11.3165 5.64825 11.7635C5.55853 11.8423 5.4566 11.9016 5.34245 11.9412C5.22783 11.9804 5.11345 12 4.9993 12M5.00212 5.96787C5.31544 5.96787 5.58319 5.85942 5.80538 5.64252C6.02711 5.42606 6.13797 5.16564 6.13797 4.86124C6.13797 4.55685 6.02617 4.29711 5.80257 4.08202C5.57897 3.86694 5.31051 3.7594 4.99718 3.7594C4.68386 3.7594 4.41611 3.86785 4.19391 4.08476C3.97172 4.30166 3.86086 4.56209 3.86133 4.86603C3.8618 5.16997 3.97337 5.42971 4.19603 5.64525C4.41869 5.86079 4.68739 5.96833 5.00212 5.96787Z" fill="#494949"/>
</svg>
