<svg width="12" height="12" viewBox="0 0 12 12" fill="none" xmlns="http://www.w3.org/2000/svg">
<path d="M6.19211 12C5.33563 12 4.532 11.8383 3.78122 11.5148C3.03044 11.1914 2.37447 10.7489 1.81332 10.1872C1.25216 9.62563 0.809631 8.96944 0.48573 8.21866C0.161829 7.46788 -0.00012207 6.66425 -0.00012207 5.80777C-0.00012207 4.48313 0.380938 3.28891 1.14306 2.22512C1.90518 1.16133 2.91136 0.41962 4.1616 0C4.11442 1.06153 4.27705 2.08245 4.6495 3.06277C5.02148 4.0431 5.584 4.90955 6.33705 5.66215C7.0901 6.4152 7.95655 6.97794 8.93642 7.35038C9.91629 7.72282 10.9374 7.88546 11.9999 7.83828C11.5825 9.08761 10.8413 10.0936 9.77612 10.8561C8.71096 11.6187 7.51629 12 6.19211 12Z" fill="#CD10C6"/>
</svg>
