<svg width="20" height="20" viewBox="0 0 20 20" fill="none" xmlns="http://www.w3.org/2000/svg">
<path d="M7.25004 13.6666H9.08337V6.33325H7.25004V13.6666ZM10.9167 13.6666H12.75V6.33325H10.9167V13.6666ZM10 19.1666C8.73199 19.1666 7.54032 18.9258 6.42504 18.4443C5.30976 17.9627 4.33963 17.3097 3.51463 16.4853C2.68963 15.6609 2.03665 14.6908 1.55571 13.5749C1.07476 12.459 0.833986 11.2674 0.833375 9.99992C0.832764 8.73247 1.07354 7.54081 1.55571 6.42492C2.03788 5.30903 2.69085 4.33889 3.51463 3.5145C4.3384 2.69011 5.30854 2.03714 6.42504 1.55559C7.54154 1.07403 8.73321 0.833252 10 0.833252C11.2669 0.833252 12.4585 1.07403 13.575 1.55559C14.6915 2.03714 15.6617 2.69011 16.4855 3.5145C17.3092 4.33889 17.9625 5.30903 18.4453 6.42492C18.9281 7.54081 19.1685 8.73247 19.1667 9.99992C19.1649 11.2674 18.9241 12.459 18.4444 13.5749C17.9647 14.6908 17.3117 15.6609 16.4855 16.4853C15.6592 17.3097 14.6891 17.963 13.575 18.4452C12.461 18.9273 11.2693 19.1678 10 19.1666Z" fill="#F97316"/>
</svg>
