<svg width="12" height="12" viewBox="0 0 12 12" fill="none" xmlns="http://www.w3.org/2000/svg">
<path d="M1.55765 4.55831H0.0207509C0.0484187 4.41759 0.0919284 4.28116 0.15128 4.14901C0.211078 4.01687 0.286941 3.88743 0.37887 3.76069L2.96871 0.276628C3.06376 0.147638 3.18871 0.062397 3.34356 0.0209039C3.49886 -0.0201382 3.64835 -0.000744691 3.79205 0.0790844L4.274 0.315866C4.39672 0.379007 4.48776 0.463572 4.54711 0.56956C4.60691 0.675096 4.63681 0.792585 4.63681 0.922025V3.21474L6.71189 2.67218C6.8837 2.62527 7.04435 2.64579 7.19384 2.73374C7.34334 2.82169 7.44798 2.95113 7.50778 3.12206L8.64707 6.58042L11.6077 9.57266C11.7617 9.72871 11.8657 9.89738 11.9197 10.0787C11.9732 10.26 12 10.4494 12 10.647C12 10.9861 11.8907 11.2802 11.672 11.5291C11.4533 11.7781 11.1782 11.9208 10.8467 11.9574H10.4216L3.63541 5.39719C3.34624 5.12703 3.0236 4.91957 2.66748 4.77479C2.31137 4.63002 1.94143 4.55786 1.55765 4.55831ZM7.41474 12C7.16573 12 6.92698 11.9553 6.6985 11.866C6.47091 11.7767 6.26296 11.6453 6.07464 11.4716L0.635912 6.48232C0.449824 6.3168 0.304792 6.1258 0.200814 5.90931C0.0968371 5.69283 0.029899 5.468 0 5.23482H1.55765C1.85709 5.23482 2.14827 5.28872 2.43119 5.39651C2.71412 5.50385 2.96313 5.66622 3.17822 5.8836L9.48848 12H7.41474Z" fill="#3D9B26"/>
</svg>
