<svg width="14" height="14" viewBox="0 0 14 14" fill="none" xmlns="http://www.w3.org/2000/svg">
<path d="M7 2.37804C6.90021 2.37804 6.81658 2.34431 6.74912 2.27685C6.68166 2.20939 6.64816 2.12599 6.64863 2.02667V0.35134C6.64863 0.251551 6.68236 0.167925 6.74982 0.100462C6.81729 0.032999 6.90091 -0.000732422 7.0007 -0.000732422C7.10049 -0.000732422 7.18388 0.032999 7.25088 0.100462C7.31787 0.167925 7.35137 0.251317 7.35137 0.350638V2.02667C7.35137 2.12646 7.31764 2.20985 7.25018 2.27685C7.18271 2.34384 7.09909 2.37757 6.9993 2.37804M10.2621 3.73785C10.1965 3.67226 10.1661 3.59214 10.1708 3.49751C10.1754 3.40381 10.2106 3.31808 10.2762 3.24031L11.4357 2.04986C11.506 1.97209 11.5901 1.93321 11.688 1.93321C11.7859 1.93321 11.8742 1.97303 11.9529 2.05267C12.026 2.12576 12.0625 2.20775 12.0625 2.29863C12.0625 2.38952 12.0251 2.47244 11.9501 2.5474L10.7597 3.73785C10.6847 3.8128 10.6018 3.85028 10.5109 3.85028C10.42 3.85028 10.3371 3.8128 10.2621 3.73785ZM11.9733 7.35134C11.8735 7.35134 11.7901 7.3176 11.7231 7.25014C11.6561 7.18268 11.6224 7.09905 11.6219 6.99926C11.6215 6.89947 11.6552 6.81608 11.7231 6.74909C11.791 6.68209 11.8744 6.6486 11.9733 6.6486H13.6493C13.7486 6.6486 13.832 6.68233 13.8995 6.74979C13.967 6.81725 14.0005 6.90088 14 7.00067C13.9995 7.10046 13.966 7.18385 13.8995 7.25084C13.833 7.31784 13.7494 7.35134 13.6486 7.35134H11.9733ZM6.9993 14.0007C6.89998 14.0007 6.81658 13.9669 6.74912 13.8995C6.68166 13.832 6.64816 13.7484 6.64863 13.6486V11.9866C6.64863 11.8873 6.68236 11.8039 6.74982 11.7364C6.81729 11.669 6.90091 11.6352 7.0007 11.6352C7.10049 11.6352 7.18388 11.669 7.25088 11.7364C7.31787 11.8039 7.35137 11.8873 7.35137 11.9866V13.6493C7.35137 13.7486 7.31764 13.832 7.25018 13.8995C7.18271 13.9669 7.09909 14.0011 6.9993 14.0007ZM3.25439 3.73855L2.0506 2.56497C1.97283 2.49517 1.93395 2.41084 1.93395 2.31199C1.93395 2.21313 1.97283 2.12599 2.0506 2.05057C2.12556 1.98498 2.21129 1.95218 2.3078 1.95218C2.40431 1.95218 2.48419 1.98498 2.54744 2.05057L3.75193 3.25436C3.81752 3.31714 3.85032 3.39702 3.85032 3.49399C3.85032 3.59097 3.81846 3.67249 3.75475 3.73855C3.68447 3.80414 3.60295 3.83693 3.51019 3.83693C3.41743 3.83693 3.33216 3.80414 3.25439 3.73855ZM11.4498 11.9508L10.2762 10.7603C10.2106 10.683 10.1754 10.5973 10.1708 10.5031C10.1661 10.409 10.1961 10.3288 10.2607 10.2628C10.3254 10.1967 10.405 10.1639 10.4996 10.1644C10.5943 10.1649 10.6812 10.2024 10.7604 10.2768L11.9508 11.4497C12.0192 11.5153 12.0527 11.5959 12.0513 11.6915C12.0499 11.787 12.015 11.8737 11.9466 11.9515C11.8716 12.0283 11.7859 12.0667 11.6894 12.0667C11.5929 12.0667 11.513 12.0281 11.4498 11.9508ZM0.351375 7.35134C0.251586 7.35134 0.16796 7.3176 0.100497 7.25014C0.0330336 7.18268 -0.000463647 7.09905 4.8465e-06 6.99926C0.00047334 6.89947 0.0339705 6.81608 0.100497 6.74909C0.167023 6.68209 0.250649 6.6486 0.351375 6.6486H2.02671C2.1265 6.6486 2.20989 6.68233 2.27688 6.74979C2.34388 6.81725 2.37761 6.90088 2.37808 7.00067C2.37855 7.10046 2.34481 7.18385 2.27688 7.25084C2.20895 7.31784 2.12556 7.35134 2.02671 7.35134H0.351375ZM2.06325 11.9501C1.99766 11.8751 1.96252 11.7901 1.95784 11.695C1.95315 11.5999 1.98361 11.5193 2.0492 11.4532L3.22699 10.2761C3.30195 10.2012 3.38393 10.1637 3.47295 10.1637C3.56196 10.1637 3.64582 10.2 3.72453 10.2726C3.80183 10.3523 3.84048 10.4392 3.84048 10.5333C3.84048 10.6275 3.80183 10.7132 3.72453 10.7905L2.56501 11.9501C2.48724 12.0278 2.39986 12.0667 2.30288 12.0667C2.20591 12.0667 2.12603 12.0278 2.06325 11.9501ZM7.00351 10.5137C6.02811 10.5137 5.19794 10.1724 4.513 9.48977C3.82807 8.80718 3.48583 7.97841 3.4863 7.00348C3.48677 6.02854 3.82806 5.19814 4.51019 4.51227C5.19232 3.82639 6.02108 3.48439 6.99649 3.48626C7.97189 3.48814 8.80206 3.82944 9.487 4.51016C10.1719 5.19088 10.5142 6.01964 10.5137 6.99645C10.5132 7.97326 10.1719 8.80343 9.48981 9.48696C8.80768 10.1705 7.97892 10.5127 7.00351 10.5137Z" fill="#FFDD2B"/>
</svg>
