<svg width="10" height="12" viewBox="0 0 10 12" fill="none" xmlns="http://www.w3.org/2000/svg">
<path d="M3.36563 0.615385V0H6.63437V0.615385H3.36563ZM4.6875 7.456H5.3125V4.23692H4.6875V7.456ZM5 12C4.30917 12 3.66062 11.8716 3.05438 11.6148C2.44813 11.3579 1.91792 11.0059 1.46375 10.5588C1.00958 10.1116 0.652083 9.58933 0.39125 8.992C0.130417 8.39467 0 7.75631 0 7.07692C0 6.39754 0.130417 5.75897 0.39125 5.16123C0.652083 4.56349 1.00958 4.04144 1.46375 3.59508C1.91792 3.14872 2.44833 2.79672 3.055 2.53908C3.66167 2.28144 4.31 2.15303 5 2.15385C5.60583 2.15385 6.19167 2.26051 6.7575 2.47385C7.32333 2.68718 7.8425 2.98851 8.315 3.37785L8.9975 2.70523L9.44 3.14092L8.7575 3.81292C9.15333 4.27856 9.45938 4.78995 9.67563 5.34708C9.89188 5.90421 10 6.48082 10 7.07692C10 7.75713 9.86958 8.39569 9.60875 8.99262C9.34792 9.58954 8.99042 10.1116 8.53625 10.5588C8.08208 11.0059 7.55167 11.3579 6.945 11.6148C6.33833 11.8716 5.69 12 5 12Z" fill="#5788E6"/>
</svg>
